<mxfile host="app.diagrams.net" modified="2022-08-09T14:15:29.356Z" agent="5.0 (X11; Linux x86_64) AppleWebKit/537.36 (KHTML, like Gecko) Chrome/103.0.0.0 Safari/537.36" etag="SP8hsJ1K5e1xCkevsir1" version="20.2.3" type="github">
  <diagram id="uOLnhWXbvwbu3YFsVj8e" name="Страница 1">
    <mxGraphModel dx="1102" dy="569" grid="1" gridSize="10" guides="1" tooltips="1" connect="1" arrows="1" fold="1" page="1" pageScale="1" pageWidth="1654" pageHeight="2336" math="0" shadow="0">
      <root>
        <mxCell id="0" />
        <mxCell id="1" parent="0" />
        <mxCell id="KiBXUwX40HchvvAshSLg-1" value="front end" style="rounded=0;whiteSpace=wrap;html=1;" vertex="1" parent="1">
          <mxGeometry x="570" y="1430" width="120" height="60" as="geometry" />
        </mxCell>
        <mxCell id="KiBXUwX40HchvvAshSLg-2" value="сервис каталога" style="rounded=0;whiteSpace=wrap;html=1;" vertex="1" parent="1">
          <mxGeometry x="570" y="1690" width="120" height="60" as="geometry" />
        </mxCell>
        <mxCell id="KiBXUwX40HchvvAshSLg-3" value="CRM = tab_users" style="rounded=0;whiteSpace=wrap;html=1;" vertex="1" parent="1">
          <mxGeometry x="570" y="1230" width="120" height="60" as="geometry" />
        </mxCell>
        <mxCell id="KiBXUwX40HchvvAshSLg-4" value="система планирования исполнения запроса" style="rounded=0;whiteSpace=wrap;html=1;" vertex="1" parent="1">
          <mxGeometry x="990" y="1250" width="120" height="60" as="geometry" />
        </mxCell>
        <mxCell id="KiBXUwX40HchvvAshSLg-5" value="сервис запросов" style="rounded=0;whiteSpace=wrap;html=1;" vertex="1" parent="1">
          <mxGeometry x="570" y="1570" width="120" height="60" as="geometry" />
        </mxCell>
        <mxCell id="KiBXUwX40HchvvAshSLg-6" value="система оплаты" style="rounded=0;whiteSpace=wrap;html=1;fillColor=#d5e8d4;strokeColor=#82b366;" vertex="1" parent="1">
          <mxGeometry x="1150" y="1440" width="120" height="60" as="geometry" />
        </mxCell>
        <mxCell id="KiBXUwX40HchvvAshSLg-7" value="сервис хранения данных клиентов (лк-ежедневник)" style="rounded=0;whiteSpace=wrap;html=1;" vertex="1" parent="1">
          <mxGeometry x="980" y="1520" width="120" height="60" as="geometry" />
        </mxCell>
        <mxCell id="KiBXUwX40HchvvAshSLg-8" value="сервис авторизации" style="rounded=0;whiteSpace=wrap;html=1;" vertex="1" parent="1">
          <mxGeometry x="570" y="1320" width="120" height="60" as="geometry" />
        </mxCell>
        <mxCell id="KiBXUwX40HchvvAshSLg-9" value="" style="endArrow=classic;html=1;rounded=0;entryX=0.5;entryY=0;entryDx=0;entryDy=0;" edge="1" parent="1" source="KiBXUwX40HchvvAshSLg-8" target="KiBXUwX40HchvvAshSLg-1">
          <mxGeometry width="50" height="50" relative="1" as="geometry">
            <mxPoint x="622" y="1470" as="sourcePoint" />
            <mxPoint x="660" y="1500" as="targetPoint" />
          </mxGeometry>
        </mxCell>
        <mxCell id="KiBXUwX40HchvvAshSLg-10" value="" style="endArrow=classic;html=1;rounded=0;" edge="1" parent="1" target="KiBXUwX40HchvvAshSLg-8">
          <mxGeometry width="50" height="50" relative="1" as="geometry">
            <mxPoint x="630" y="1290" as="sourcePoint" />
            <mxPoint x="680" y="1240" as="targetPoint" />
          </mxGeometry>
        </mxCell>
        <mxCell id="KiBXUwX40HchvvAshSLg-11" value="" style="endArrow=classic;html=1;rounded=0;entryX=0.5;entryY=1;entryDx=0;entryDy=0;" edge="1" parent="1" target="KiBXUwX40HchvvAshSLg-1">
          <mxGeometry width="50" height="50" relative="1" as="geometry">
            <mxPoint x="630" y="1570" as="sourcePoint" />
            <mxPoint x="680" y="1520" as="targetPoint" />
          </mxGeometry>
        </mxCell>
        <mxCell id="KiBXUwX40HchvvAshSLg-12" value="" style="endArrow=classic;html=1;rounded=0;exitX=0;exitY=0.5;exitDx=0;exitDy=0;" edge="1" parent="1" source="KiBXUwX40HchvvAshSLg-4" target="KiBXUwX40HchvvAshSLg-3">
          <mxGeometry width="50" height="50" relative="1" as="geometry">
            <mxPoint x="820" y="1490" as="sourcePoint" />
            <mxPoint x="870" y="1440" as="targetPoint" />
          </mxGeometry>
        </mxCell>
      </root>
    </mxGraphModel>
  </diagram>
</mxfile>
